# AST/ASF file generated using VICON BodyLanguage
# -----------------------------------------------
:version 1.10
:name VICON
:units
  mass 1.0
  length 0.45
  angle deg
:documentation
   .ast/.asf automatically generated from VICON data using
   VICON BodyBuilder and BodyLanguage model FoxedUp or BRILLIANT.MOD
:root
   order TX TY TZ RX RY RZ
   axis XYZ
   position 0 0 0  
   orientation 0 0 0 
:bonedata
  begin
     id 1 
     name lhipjoint
     direction 0.561145 -0.797705 0.220866 
     length 2.46425 
     axis 0 0 0  XYZ
  end
  begin
     id 2 
     name lfemur
     direction 0.34202 -0.939693 0  
     length 7.95556  
     axis 0 0 20  XYZ
    dof rx ry rz
    limits (-160.0 20.0)
           (-70.0 70.0)
           (-60.0 70.0)
  end
  begin
     id 3 
     name ltibia
     direction 0.34202 -0.939693 0   
     length 7.9832   
     axis 0 0 20   XYZ
    dof rx
    limits (-10.0 170.0)
  end
  begin
     id 4 
     name lfoot
     direction 0.0723927 -0.198897 0.977343   
     length 2.23085   
     axis -90 7.62852e-016 20   XYZ
    dof rx rz
    limits (-45.0 90.0)
           (-70.0 20.0)
  end
  begin
     id 5 
     name ltoes
     direction 1.53826e-011 -4.21988e-011 1   
     length 1.12127   
     axis -90 7.62852e-016 20   XYZ
    dof rx
    limits (-90.0 20.0)
  end
  begin
     id 6 
     name rhipjoint
     direction -0.610499 -0.763299 0.21134   
     length 2.57533  
     axis 0 0 0  XYZ 
  end
  begin
     id 7 
     name rfemur
     direction -0.34202 -0.939693 0   
     length 8.65257   
     axis 0 0 -20   XYZ
    dof rx ry rz
    limits (-160.0 20.0)
           (-70.0 70.0)
           (-70.0 60.0)
  end
  begin
     id 8 
     name rtibia
     direction -0.342021 -0.939692 0   
     length 7.37807   
     axis 0 0 -20   XYZ
    dof rx
    limits (-10.0 170.0)
 end
 begin
     id 9 
     name rfoot
     direction -0.0239304 -0.0543852 0.998233   
     length 1.87018  
     axis -90 -7.62852e-016 -20   XYZ
    dof rx rz
    limits (-45.0 90.0)
           (-20.0 70.0)
  end
  begin
     id 10 
     name rtoes
     direction -1.53584e-011 -4.2242e-011 1   
     length 0.951568   
     axis -90 -7.62852e-016 -20   XYZ
    dof rx
    limits (-90.0 20.0)
  end
  begin
     id 11 
     name lowerback
     direction 0.00322089 0.999033 0.0438587   
     length 2.07568   
     axis 0 0 0   XYZ
    dof rx ry rz
    limits (-20.0 45.0)
           (-30.0 30.0)
           (-30.0 30.0)
  end
  begin
     id 12 
     name upperback
     direction -0.00321932 0.999732 -0.0229403   
     length 2.06253   
     axis 0 0 0   XYZ
    dof rx ry rz
    limits (-20.0 45.0)
           (-30.0 30.0)
           (-30.0 30.0)
  end
  begin
     id 13 
     name thorax
     direction -0.00537537 0.998955 -0.0453918   
     length 2.06975   
     axis 0 0 0   XYZ
    dof rx ry rz
    limits (-20.0 45.0)
           (-30.0 30.0)
           (-30.0 30.0)
  end
  begin
     id 14 
     name lowerneck
     direction -0.00013604 0.994111 0.108363   
     length 1.50836   
     axis 0 0 0   XYZ
    dof rx ry rz
    limits (-20.0 45.0)
           (-30.0 30.0)
           (-30.0 30.0)
  end
  begin
     id 15 
     name upperneck
     direction 0.0397262 0.983859 -0.174482   
     length 1.53037   
     axis 0 0 0   XYZ
    dof rx ry rz
    limits (-20.0 45.0)
           (-30.0 30.0)
           (-30.0 30.0)
  end
  begin
     id 16
     name head
     direction 0.0109991 0.997082 -0.0755378  
     length 1.56928  
     axis 0 0 0   XYZ
    dof rx ry rz
    limits (-20.0 45.0)
           (-30.0 30.0)
           (-30.0 30.0)
  end
  begin
     id 17 
     name lclavicle
     direction 0.964749 0.254 -0.068874  
     length 3.26503  
     axis 0 0 0   XYZ
    dof ry rz
    limits (-20.0 10.0)
           (0.0 20.0)
  end
  begin
     id 18 
     name lhumerus
     direction 1 -4.48941e-011 -2.05079e-027   
     length 5.68236   
     axis 180 -30 -90   XYZ
    dof rx ry rz
    limits (-60.0 90.0)
           (-90.0 90.0)
           (-90.0 90.0)
  end
  begin
     id 19
     name lradius
     direction 1 -4.48956e-011 6.2882e-027   
     length 3.17112   
     axis 180 -30 -90   XYZ
    dof rx
    limits (-10.0 170.0)
  end
  begin
     id 20
     name lwrist
     direction 1 -4.49014e-011 1.73219e-026   
     length 1.58556   
     axis -1.04724e-014 90 90   XYZ
    dof ry
    limits (-180.0 0.0)
 end
  begin
     id 21 
     name lhand
     direction 1 -4.49312e-011 3.46438e-026   
     length 0.632691   
     axis -2.21057e-014 90 90   XYZ
    dof rx rz
    limits (-90.0 90.0)
           (-45.0 45.0)
  end
  begin
     id 22 
     name lfingers
     direction 1 -4.48894e-011 6.92876e-026   
     length 0.510091   
     axis -4.42114e-014 90 90   XYZ
    dof rx
    limits (0.0 90.0)
  end
  begin
     id 23
     name lthumb
     direction 0.707107 -6.34705e-011 0.707107   
     length 0.732392   
     axis -90 45 2.85299e-015   XYZ
    dof rx rz
    limits (-45.0 45.0)
           (-45.0 45.0)
  end
  begin
     id 24 
     name rclavicle
     direction -0.954374 0.280496 -0.102435   
     length 3.25419  
     axis 0 0 0   XYZ 
    dof ry rz
    limits (-10.0 20.0)
           (-20.0 0.0)
  end
  begin
     id 25 
     name rhumerus
     direction -1 -4.48994e-011 -1.07204e-017  
     length 5.8712   
     axis 180 30 90   XYZ
    dof rx ry rz
    limits (-90.0 60.0)
           (-90.0 90.0)
           (-90.0 90.0)
  end
  begin
     id 26 
     name rradius
     direction -1 -4.48972e-011 5.89292e-027   
     length 3.37589   
     axis 180 30 90   XYZ
    dof rx
    limits (-10.0 170.0)
  end
  begin
     id 27 
     name rwrist
     direction -1 -4.48942e-011 1.73219e-026   
     length 1.68794   
     axis -1.04724e-014 -90 -90   XYZ
    dof ry
    limits (-180.0 0.0)
  end
  begin
     id 28
     name rhand
     direction -1 -4.48514e-011 3.46438e-026   
     length 0.603257   
     axis -2.21057e-014 -90 -90   XYZ
    dof rx rz
    limits (-90.0 90.0)
           (-45.0 45.0)
  end
  begin
     id 29
     name rfingers
     direction -1 -4.50028e-011 6.92876e-026   
     length 0.486362   
     axis -4.42114e-014 -90 -90   XYZ
    dof rx
    limits (0.0 90.0)
  end
  begin
     id 30
     name rthumb
     direction -0.707107 -6.34926e-011 0.707107   
     length 0.698321   
     axis -90 -45 -2.85299e-015   XYZ
    dof rx rz
    limits (-45.0 45.0)
           (-45.0 45.0)
  end
:hierarchy
  begin
    root lhipjoint rhipjoint lowerback
    lhipjoint lfemur
    lfemur ltibia
    ltibia lfoot
    lfoot ltoes
    rhipjoint rfemur
    rfemur rtibia
    rtibia rfoot
    rfoot rtoes
    lowerback upperback
    upperback thorax
    thorax lowerneck lclavicle rclavicle
    lowerneck upperneck
    upperneck head
    lclavicle lhumerus
    lhumerus lradius
    lradius lwrist
    lwrist lhand lthumb
    lhand lfingers
    rclavicle rhumerus
    rhumerus rradius
    rradius rwrist
    rwrist rhand rthumb
    rhand rfingers
  end

#!OML:ASF I:\Segmentation\Patient Classification 1\Patient 1\Session 1\Patient1.ASF
:FULLY-SPECIFIED
:DEGREES
3721
root 26.0208 18.1669 -6.31717 176.548 -448.993 -1604.62
lowerback -13.4033 0.986249 -0.913484
upperback 1.51466 1.32212 1.44993
thorax 9.11601 0.542759 2.34958
lowerneck -19.0149 0.0682113 -3.58554
upperneck 19.2608 1.08025 -0.0825992
head 9.18355 0.191671 0.700575
rclavicle 6.26172e-015 2.38542e-015
rhumerus -38.6085 0.396034 -75.6099
rradius 60.7075
rwrist 6.54885
rhand -18.4815 32.2838
rfingers 7.12502
rthumb 7.80558 2.44789
lclavicle 6.26172e-015 2.38542e-015
lhumerus -36.0078 -16.568 87.1296
lradius 97.147
lwrist 24.1853
lhand -14.3042 36.1432
lfingers 7.12502
lthumb 11.8357 65.7887
rfemur -18.4029 8.47917 19.648
rtibia 39.2402
rfoot -16.9952 -2.4658
rtoes -45.2042
lfemur -35.2745 -2.9391 -18.2695
ltibia 39.9525
lfoot -15.8213 7.39579
ltoes -16.7771
3722
root 26.0542 18.1655 -6.35293 180.58 -448.925 -1608.51
lowerback -13.3578 0.982537 -0.968842
upperback 1.54608 1.32735 1.44253
thorax 9.12285 0.542647 2.37352
lowerneck -19.0499 0.0913802 -3.63161
upperneck 19.1165 1.12882 -0.0848768
head 9.13877 0.214179 0.713386
rclavicle 1.59028e-015 1.19271e-015
rhumerus -38.5467 0.580557 -75.6333
rradius 60.6974
rwrist 6.6207
rhand -18.1469 32.115
rfingers 7.12502
rthumb 8.12859 2.29134
lclavicle 1.59028e-015 1.19271e-015
lhumerus -35.8271 -16.6059 87.1124
lradius 97.0422
lwrist 24.1862
lhand -14.6025 35.7121
lfingers 7.12502
lthumb 11.5481 65.3739
rfemur -18.5607 8.47386 19.6954
rtibia 39.0293
rfoot -17.2715 -2.51802
rtoes -45.1359
lfemur -35.5226 -2.79941 -18.2102
ltibia 39.9093
lfoot -15.6535 7.48974
ltoes -17.1535
3723
root 26.0875 18.1647 -6.38739 185.705 -448.888 -1613.47
lowerback -13.3589 0.972145 -1.05371
upperback 1.55226 1.33016 1.41831
thorax 9.12878 0.540438 2.39636
lowerneck -18.9862 0.0842707 -3.71969
upperneck 18.9522 1.1236 -0.00491564
head 9.06941 0.218309 0.753727
rclavicle -7.95139e-016 -4.77083e-015
rhumerus -38.4884 0.733554 -75.6281
rradius 60.6596
rwrist 6.62581
rhand -17.9539 31.9237
rfingers 7.12502
rthumb 8.31487 2.10737
lclavicle -7.95139e-016 -4.77083e-015
lhumerus -35.6692 -16.544 87.0712
lradius 96.8268
lwrist 24.1073
lhand -14.5954 35.1038
lfingers 7.12502
lthumb 11.5549 64.7653
rfemur -18.7437 8.48814 19.7036
rtibia 38.8548
rfoot -17.5851 -2.54221
rtoes -44.9629
lfemur -35.8019 -2.68987 -18.1893
ltibia 39.8682
lfoot -15.4821 7.6105
ltoes -17.1341
3724
root 26.1191 18.161 -6.42344 193.346 -448.935 -1620.95
lowerback -13.3326 0.905453 -1.19358
upperback 1.49543 1.26809 1.37838
thorax 9.05253 0.506236 2.41778
lowerneck -18.9098 0.077785 -3.85476
upperneck 18.9306 1.11835 0.133341
head 9.0465 0.22201 0.822238
rclavicle 1.71949e-014 -7.15625e-015
rhumerus -38.4691 0.904959 -75.6772
rradius 60.5234
rwrist 6.74984
rhand -18.2316 31.998
rfingers 7.12502
rthumb 8.04681 2.17115
lclavicle 1.71949e-014 -7.15625e-015
lhumerus -35.6521 -16.4474 86.9995
lradius 96.7258
lwrist 24.0779
lhand -14.5636 35.1723
lfingers 7.12502
lthumb 11.5856 64.832
rfemur -18.9208 8.64341 19.6847
rtibia 38.7062
rfoot -17.9241 -2.82758
rtoes -44.7488
lfemur -36.0865 -2.63241 -18.218
ltibia 39.8266
lfoot -15.3449 7.63391
ltoes -17.0489
3725
root 26.1532 18.1559 -6.4593 201.306 -448.966 -1628.74
lowerback -13.2649 0.865595 -1.27724
upperback 1.4357 1.23621 1.29498
thorax 8.95 0.491282 2.36588
lowerneck -18.9062 0.0700174 -3.84745
upperneck 18.9386 1.09756 0.167965
head 9.04871 0.216638 0.830233
rclavicle -3.57812e-015 2.38542e-015
rhumerus -38.4671 0.948679 -75.7931
rradius 60.3581
rwrist 7.04296
rhand -18.4776 32.31
rfingers 7.12502
rthumb 7.80938 2.47418
lclavicle -3.57812e-015 2.38542e-015
lhumerus -35.6586 -16.5192 86.9304
lradius 96.7251
lwrist 24.2307
lhand -15.0828 35.2587
lfingers 7.12502
lthumb 11.0849 64.946
rfemur -19.1209 8.67182 19.6833
rtibia 38.5694
rfoot -18.1824 -3.09599
rtoes -44.5993
lfemur -36.3941 -2.52025 -18.2597
ltibia 39.7902
lfoot -15.294 7.48712
ltoes -17.2658
3726
root 26.1858 18.1535 -6.49334 206.277 -448.968 -1633.56
lowerback -13.3004 0.917234 -1.25111
upperback 1.45192 1.3136 1.1658
thorax 8.98777 0.53329 2.2297
lowerneck -18.8954 0.00218587 -3.68028
upperneck 18.8147 0.966299 0.122437
head 9.00763 0.165666 0.769489
rclavicle -6.4605e-015 -6.36111e-015
rhumerus -38.4567 0.820721 -75.8807
rradius 60.2497
rwrist 7.10536
rhand -18.3415 32.3839
rfingers 7.12502
rthumb 7.94072 2.55301
lclavicle -6.4605e-015 -6.36111e-015
lhumerus -35.4911 -16.7775 86.8118
lradius 96.6923
lwrist 24.3995
lhand -15.2799 35.0564
lfingers 7.12502
lthumb 10.8948 64.7538
rfemur -19.3037 8.72922 19.7296
rtibia 38.4437
rfoot -18.6439 -3.32327
rtoes -44.3501
lfemur -36.6832 -2.31113 -18.2758
ltibia 39.7671
lfoot -15.167 7.33269
ltoes -17.3915
3727
root 26.2181 18.1508 -6.52675 209.193 -448.926 -1636.33
lowerback -13.3518 0.94145 -1.23914
upperback 1.47153 1.35072 1.10044
thorax 9.03885 0.552932 2.1623
lowerneck -18.7836 -0.0380781 -3.66467
upperneck 18.6048 0.897859 0.13749
head 8.91659 0.141209 0.761949
rclavicle 1.95803e-014 5.96354e-015
rhumerus -38.4191 0.890086 -75.923
rradius 60.1494
rwrist 7.08148
rhand -18.356 32.2092
rfingers 7.12502
rthumb 7.92673 2.37777
lclavicle 1.95803e-014 5.96354e-015
lhumerus -35.3932 -16.8642 86.7486
lradius 96.6457
lwrist 24.4339
lhand -15.2565 34.8758
lfingers 7.12502
lthumb 10.9174 64.572
rfemur -19.5183 8.89939 19.7794
rtibia 38.3337
rfoot -19.1949 -3.59267
rtoes -43.9607
lfemur -36.9608 -2.1452 -18.254
ltibia 39.7586
lfoot -14.9627 7.30695
ltoes -17.3146
